<?xml version="1.0" encoding="UTF-8" standalone="no"?>
<!-- Created with Inkscape (http://www.inkscape.org/) -->

<svg
   version="1.1"
   id="svg1"
   width="48"
   height="48"
   viewBox="0 0 48 48"
   sodipodi:docname="logo.svg"
   inkscape:version="1.3.2 (091e20ef0f, 2023-11-25, custom)"
   inkscape:export-filename="logo_32x44.png"
   inkscape:export-xdpi="8.8770723"
   inkscape:export-ydpi="8.8770723"
   xmlns:inkscape="http://www.inkscape.org/namespaces/inkscape"
   xmlns:sodipodi="http://sodipodi.sourceforge.net/DTD/sodipodi-0.dtd"
   xmlns="http://www.w3.org/2000/svg"
   xmlns:svg="http://www.w3.org/2000/svg">
  <defs
     id="defs1" />
  <sodipodi:namedview
     id="namedview1"
     pagecolor="#505050"
     bordercolor="#eeeeee"
     borderopacity="1"
     inkscape:showpageshadow="0"
     inkscape:pageopacity="0"
     inkscape:pagecheckerboard="0"
     inkscape:deskcolor="#505050"
     inkscape:zoom="8"
     inkscape:cx="24.5"
     inkscape:cy="25.8125"
     inkscape:window-width="1366"
     inkscape:window-height="732"
     inkscape:window-x="0"
     inkscape:window-y="0"
     inkscape:window-maximized="1"
     inkscape:current-layer="g1"
     showgrid="false" />
  <g
     inkscape:groupmode="layer"
     inkscape:label="Image"
     id="g1">
    <g
       id="g9"
       transform="matrix(0.10350561,0,0,0.09597099,-278.01444,-45.034977)">
      <path
         style="fill:#9bf9e7;fill-opacity:1;stroke:none"
         d="m 2916.4158,480.43183 c -4.7329,9.6665 -6.4024,20.96931 -10.4529,31.00001 -10.1094,25.03503 -22.7104,49.94684 -39.8079,71 -43.0185,52.97134 -109.2326,94.2778 -120.4645,167 -5.3511,34.64624 -2.1657,74.27951 13.6945,106 25.648,51.29608 77.7506,80.69726 132.0308,93.0108 22.3919,5.07965 43.1468,7.81134 66,3.52936 24.6523,-4.61914 44.6154,-18.78827 65,-32.54016 v -1 c -13.0773,1.92413 -24.4478,5.8385 -38,4.91052 -38.3595,-2.62683 -87.4397,-31.65259 -93,-72.91052 h 1 c 31.2832,66.12866 125.0401,64.03979 168.8265,15 47.9569,-53.71076 27.9801,-137.00885 -10.953,-189 -8.6389,-11.53638 -18.0093,-25.64172 -29.8735,-34 6.9442,33.66162 8.0271,69.68625 -10.9151,100 -3.2659,5.22644 -7.5624,9.7478 -12.0849,13.90665 -25.6604,23.5971 -54.5779,3.06283 -66.1273,-23.90665 -3.924,-9.16312 -10.177,-24.88809 -7.7068,-35 1.8779,-7.68717 11.3443,-15.86127 16.1729,-22 10.0398,-12.76379 19.3312,-26.76883 25.2006,-42 16.2796,-42.24561 0.5049,-85.15753 -23.5402,-121 -7.0808,-10.55493 -14.8493,-24.23207 -24.9992,-32.00001 z"
         id="path8" />
      <path
         id="path9"
         style="fill:#60e8dc;fill-opacity:1"
         d="m 3020.6074,642.78862 c -0.398,0.26578 1.441,9.23859 2.408,14.4043 2.3337,12.46546 2.2657,37.89448 -0.1328,49.89258 -4.513,22.57521 -10.1154,40.23999 -24.8672,49.65625 -11.975,7.64382 -13.5831,8.6072 -24.871,10.41662 -1.8066,0.28959 -9.0204,-1.5391 -15.1816,-4.56966 -15.9355,-7.83833 -31.1838,-46.42387 -32.5002,-54.89907 -0.8296,-5.34138 -1.4234,-11.53004 0.5667,-15.56926 0.8492,-1.72371 -28.0964,20.49927 -35.7873,28.20926 -13.8923,13.9267 -24.0644,31.36174 -30.5801,50.9961 -5.9591,17.9571 -8.8961,37.73465 -8.084,58.75976 1.1118,28.78631 10.1581,54.8247 27.5274,82 7.112,11.12717 24.847,38.5316 34.7458,40.26431 11.5284,2.01795 20.9224,1.96546 26.9553,1.23765 17.4849,-2.10937 30.8971,-4.01187 46.1951,-12.12236 9.4924,-5.03252 39.1321,-23.08616 38.4118,-23.8065 -0.2778,-0.27777 -12.136,2.32584 -15.6076,2.99227 -5.88,1.12877 -15.1539,3.8215 -32.0105,2.00615 -32.9396,-3.5474 -76.9713,-33.68252 -84.4006,-62.96394 -1.7912,-7.05994 -2.4944,-11.86914 3.1482,-1.8068 23.9614,42.72964 84.002,54.94267 129.9863,33.08985 28.6277,-13.60454 51.8486,-39.94451 58.5134,-70.01038 1.5213,-6.8628 3.2284,-14.95866 3.8408,-22.78434 1.2343,-15.77105 -0.8529,-33.06897 -3.9307,-47.09591 -4.0033,-18.24516 -13.4951,-42.89459 -25.4993,-62.08975 -9.5412,-15.25651 -36.2185,-47.96157 -38.8459,-46.20713 z"
         sodipodi:nodetypes="ssssssssssssssssssssssssss" />
    </g>
  </g>
</svg>
